<svg width="36" height="25" viewBox="0 0 36 25" fill="none" xmlns="http://www.w3.org/2000/svg">
<path d="M35.4857 24.6857H0.514286C0.377889 24.6857 0.247078 24.6315 0.150631 24.5351C0.0541835 24.4386 0 24.3078 0 24.1714V0.514286C0 0.377889 0.0541835 0.247078 0.150631 0.150631C0.247078 0.0541836 0.377889 0 0.514286 0H35.4857C35.6221 0 35.7529 0.0541836 35.8494 0.150631C35.9458 0.247078 36 0.377889 36 0.514286V24.1714C36 24.3078 35.9458 24.4386 35.8494 24.5351C35.7529 24.6315 35.6221 24.6857 35.4857 24.6857ZM1.02857 23.6571H34.9714V1.02857H1.02857V23.6571Z" fill="black"/>
<path d="M21.7424 24.5267L10.818 13.1055L0.902548 24.5087L0.125977 23.834L10.4117 12.0054C10.4587 11.9513 10.5164 11.9077 10.5812 11.8772C10.6461 11.8467 10.7165 11.8302 10.7881 11.8285C10.8597 11.8257 10.9311 11.8384 10.9973 11.8657C11.0635 11.8931 11.1231 11.9344 11.1718 11.9869L22.4861 23.8155L21.7424 24.5267Z" fill="black"/>
<path d="M35.0368 24.4225L25.6629 7.64704L17.4739 19.1794L16.6351 18.5838L25.2952 6.38807C25.3449 6.31675 25.4121 6.2594 25.4904 6.22149C25.5686 6.18358 25.6553 6.16639 25.7421 6.17155C25.8288 6.17625 25.9129 6.20281 25.9865 6.24876C26.0602 6.29471 26.121 6.35856 26.1633 6.43435L35.9347 23.9201L35.0368 24.4225Z" fill="black"/>
<path d="M16.4572 10.8001C15.7452 10.8001 15.0491 10.589 14.4571 10.1934C13.8651 9.79781 13.4037 9.23557 13.1312 8.57776C12.8587 7.91994 12.7874 7.1961 12.9264 6.49777C13.0653 5.79944 13.4081 5.15798 13.9116 4.65452C14.4151 4.15105 15.0565 3.80818 15.7549 3.66927C16.4532 3.53037 17.177 3.60166 17.8348 3.87413C18.4927 4.14661 19.0549 4.60803 19.4505 5.20005C19.846 5.79206 20.0572 6.48809 20.0572 7.2001C20.0561 8.15454 19.6765 9.06958 19.0016 9.74448C18.3267 10.4194 17.4116 10.799 16.4572 10.8001ZM16.4572 4.62867C15.9486 4.62867 15.4514 4.77948 15.0286 5.06203C14.6057 5.34459 14.2761 5.74619 14.0815 6.21606C13.8869 6.68592 13.8359 7.20295 13.9352 7.70176C14.0344 8.20057 14.2793 8.65875 14.6389 9.01837C14.9985 9.37799 15.4567 9.6229 15.9555 9.72212C16.4543 9.82134 16.9714 9.77041 17.4412 9.57579C17.9111 9.38116 18.3127 9.05158 18.5952 8.62871C18.8778 8.20584 19.0286 7.70868 19.0286 7.2001C19.0278 6.51836 18.7566 5.86479 18.2746 5.38273C17.7925 4.90067 17.1389 4.62949 16.4572 4.62867Z" fill="black"/>
</svg>
