<svg width="40" height="40" viewBox="0 0 40 40" fill="none" xmlns="http://www.w3.org/2000/svg">
<path d="M29.1891 36.2162H2.70265C2.27257 36.2162 1.8601 36.0453 1.55599 35.7412C1.25187 35.4371 1.08102 35.0247 1.08102 34.5946V17.2973C1.08102 16.8672 1.25187 16.4547 1.55599 16.1506C1.8601 15.8465 2.27257 15.6757 2.70265 15.6757H29.1891C29.6192 15.6757 30.0317 15.8465 30.3358 16.1506C30.6399 16.4547 30.8108 16.8672 30.8108 17.2973V34.5946C30.8108 35.0247 30.6399 35.4371 30.3358 35.7412C30.0317 36.0453 29.6192 36.2162 29.1891 36.2162ZM2.70265 16.7567C2.55929 16.7567 2.4218 16.8137 2.32043 16.9151C2.21906 17.0164 2.16211 17.1539 2.16211 17.2973V34.5946C2.16211 34.7379 2.21906 34.8754 2.32043 34.9768C2.4218 35.0782 2.55929 35.1351 2.70265 35.1351H29.1891C29.3325 35.1351 29.47 35.0782 29.5714 34.9768C29.6727 34.8754 29.7297 34.7379 29.7297 34.5946V17.2973C29.7297 17.1539 29.6727 17.0164 29.5714 16.9151C29.47 16.8137 29.3325 16.7567 29.1891 16.7567H2.70265Z" fill="black"/>
<path d="M38.3784 35.0632C38.304 35.0635 38.2304 35.0484 38.1622 35.0189L30.0541 31.5232C29.9575 31.4811 29.8754 31.4117 29.8178 31.3235C29.7602 31.2354 29.7296 31.1323 29.7297 31.027V20.8648C29.7296 20.7595 29.7602 20.6565 29.8178 20.5683C29.8754 20.4802 29.9575 20.4107 30.0541 20.3686L38.1622 16.8729C38.2445 16.837 38.3345 16.8222 38.424 16.8297C38.5135 16.8373 38.5997 16.8671 38.6748 16.9163C38.7499 16.9656 38.8116 17.0328 38.8542 17.1118C38.8968 17.1909 38.9191 17.2793 38.9189 17.3692V34.5227C38.9189 34.5937 38.9049 34.664 38.8778 34.7295C38.8506 34.7951 38.8108 34.8547 38.7606 34.9049C38.7104 34.9551 38.6508 34.9949 38.5852 35.0221C38.5197 35.0492 38.4494 35.0632 38.3784 35.0632ZM30.8108 30.6713L37.8378 33.6984V18.1908L30.8108 21.2178V30.6713Z" fill="black"/>
<path d="M23.7838 24.3243H14.5946C14.4512 24.3243 14.3137 24.2674 14.2124 24.166C14.111 24.0647 14.054 23.9272 14.054 23.7838V19.6849C14.054 19.5415 14.111 19.404 14.2124 19.3027C14.3137 19.2013 14.4512 19.1443 14.5946 19.1443H23.7838C23.9271 19.1443 24.0646 19.2013 24.166 19.3027C24.2674 19.404 24.3243 19.5415 24.3243 19.6849V23.7838C24.3243 23.9272 24.2674 24.0647 24.166 24.166C24.0646 24.2674 23.9271 24.3243 23.7838 24.3243ZM15.1351 23.2433H23.2432V20.2254H15.1351V23.2433Z" fill="black"/>
<path d="M22.1621 16.7569C20.8792 16.7569 19.6251 16.3764 18.5584 15.6637C17.4917 14.9509 16.6603 13.9379 16.1694 12.7526C15.6784 11.5674 15.55 10.2632 15.8003 9.00491C16.0506 7.74666 16.6683 6.59088 17.5755 5.68373C18.4826 4.77657 19.6384 4.1588 20.8967 3.90851C22.1549 3.65823 23.4591 3.78669 24.6444 4.27763C25.8296 4.76858 26.8427 5.59997 27.5554 6.66667C28.2682 7.73336 28.6486 8.98746 28.6486 10.2704C28.6467 11.9901 27.9627 13.6389 26.7467 14.8549C25.5307 16.071 23.8819 16.755 22.1621 16.7569ZM22.1621 4.86496C21.093 4.86496 20.0479 5.18198 19.159 5.77593C18.2701 6.36989 17.5773 7.2141 17.1682 8.20181C16.7591 9.18951 16.652 10.2764 16.8606 11.3249C17.0691 12.3735 17.584 13.3366 18.3399 14.0926C19.0959 14.8485 20.059 15.3633 21.1076 15.5719C22.1561 15.7805 23.243 15.6734 24.2307 15.2643C25.2184 14.8552 26.0626 14.1624 26.6565 13.2734C27.2505 12.3845 27.5675 11.3395 27.5675 10.2704C27.5659 8.83724 26.9959 7.46327 25.9826 6.4499C24.9692 5.43653 23.5952 4.86653 22.1621 4.86496Z" fill="black"/>
<path d="M11.3514 16.7567C10.2823 16.7567 9.23719 16.4397 8.34828 15.8458C7.45936 15.2518 6.76654 14.4076 6.35742 13.4199C5.9483 12.4322 5.84125 11.3453 6.04982 10.2968C6.25839 9.24824 6.7732 8.28509 7.52916 7.52913C8.28512 6.77317 9.24827 6.25836 10.2968 6.04979C11.3454 5.84122 12.4322 5.94826 13.4199 6.35739C14.4076 6.76651 15.2518 7.45933 15.8458 8.34825C16.4397 9.23716 16.7568 10.2822 16.7568 11.3513C16.7552 12.7845 16.1852 14.1584 15.1718 15.1718C14.1585 16.1852 12.7845 16.7552 11.3514 16.7567ZM11.3514 7.02701C10.4961 7.02701 9.66003 7.28062 8.9489 7.75579C8.23776 8.23095 7.6835 8.90632 7.35621 9.69648C7.02891 10.4866 6.94327 11.3561 7.11013 12.195C7.27698 13.0338 7.68883 13.8043 8.2936 14.4091C8.89837 15.0139 9.66889 15.4257 10.5077 15.5926C11.3466 15.7594 12.216 15.6738 13.0062 15.3465C13.7964 15.0192 14.4717 14.4649 14.9469 13.7538C15.4221 13.0427 15.6757 12.2066 15.6757 11.3513C15.6744 10.2048 15.2184 9.10568 14.4077 8.29499C13.597 7.4843 12.4978 7.02829 11.3514 7.02701Z" fill="black"/>
</svg>
