<svg width="49" height="49" viewBox="0 0 49 49" fill="none" xmlns="http://www.w3.org/2000/svg">
<path d="M47.5244 8.8219H19.691C19.2878 8.8219 18.9614 9.14824 18.9614 9.55143V16.3711H10.602C10.4021 16.3711 10.2115 16.4528 10.0738 16.5977L0.988276 26.1448C0.858906 26.2805 0.786926 26.4604 0.786926 26.6477V35.0431C0.786926 35.4463 1.11327 35.7726 1.51645 35.7726H6.5789C6.82694 37.7725 8.53452 39.3269 10.602 39.3269C12.6709 39.3269 14.3805 37.773 14.6285 35.7726H19.691H32.9455C33.1931 37.7725 34.8972 39.3269 36.9604 39.3269C39.0298 39.3269 40.7393 37.773 40.9878 35.7726H47.5244C47.9276 35.7726 48.2539 35.4463 48.2539 35.0431V9.55094C48.2539 9.14873 47.9271 8.8219 47.5244 8.8219ZM10.6015 37.8678C9.16872 37.8678 8.00342 36.703 8.00342 35.2717C8.00342 33.8389 9.16872 32.6736 10.6015 32.6736C12.0363 32.6736 13.2035 33.8389 13.2035 35.2717C13.2035 36.7035 12.0363 37.8678 10.6015 37.8678ZM10.6015 31.2145C8.69453 31.2145 7.0954 32.5384 6.66304 34.3141H2.24501V26.9395L10.9138 17.8301H18.9605V34.3141H14.5429C14.111 32.5384 12.51 31.2145 10.6015 31.2145ZM36.9599 37.8678C35.5315 37.8678 34.37 36.703 34.37 35.2717C34.37 33.8389 35.5319 32.6736 36.9599 32.6736C38.3951 32.6736 39.5628 33.8389 39.5628 35.2717C39.5628 36.7035 38.3951 37.8678 36.9599 37.8678ZM46.7949 34.3141H40.9027C40.4699 32.5384 38.8688 31.2145 36.9599 31.2145C35.0573 31.2145 33.461 32.5384 33.0297 34.3141H20.42V10.281H46.7944L46.7949 34.3141Z" fill="#F44336"/>
<path d="M28.7386 21.8431H32.6678V25.7728C32.6678 26.176 32.9941 26.5023 33.3973 26.5023C33.8005 26.5023 34.1269 26.176 34.1269 25.7728V21.8431H38.0556C38.4588 21.8431 38.7851 21.5167 38.7851 21.1135C38.7851 20.7103 38.4588 20.384 38.0556 20.384H34.1269V16.4572C34.1269 16.054 33.8005 15.7277 33.3973 15.7277C32.9941 15.7277 32.6678 16.054 32.6678 16.4572V20.384H28.7386C28.3354 20.384 28.009 20.7103 28.009 21.1135C28.009 21.5167 28.3354 21.8431 28.7386 21.8431Z" fill="#F44336"/>
</svg>
