<svg width="44" height="44" viewBox="0 0 44 44" fill="none" xmlns="http://www.w3.org/2000/svg">
<path d="M38.6099 8.45927H32.2507C32.1477 6.52401 31.5813 5.19326 30.4872 4.30706C29.3553 3.39021 27.6339 2.96313 25.0699 2.96313H18.9729C16.4057 2.96313 14.6783 3.38956 13.5365 4.30538C12.4281 5.19438 11.8542 6.52569 11.7499 8.45927H5.39028C2.41802 8.45927 0 10.8773 0 13.8495V33.3804C0 36.1638 2.12053 38.4609 4.8309 38.7417C4.82099 38.8036 4.81436 38.8667 4.81436 38.9313V39.8378C4.81436 40.499 5.35225 41.0369 6.01347 41.0369H13.3994C14.0606 41.0369 14.5985 40.499 14.5985 39.8378V38.9313C14.5985 38.8767 14.5935 38.8233 14.5864 38.7706H29.3787C29.3716 38.8232 29.3666 38.8767 29.3666 38.9313V39.8378C29.3666 40.499 29.9047 41.0369 30.5658 41.0369H37.9518C38.613 41.0369 39.1509 40.499 39.1509 39.8378V38.9313C39.1509 38.8676 39.1445 38.8056 39.1348 38.7447C41.8615 38.4798 43.9999 36.1755 43.9999 33.3804V13.8495C44.0002 10.8773 41.5822 8.45927 38.6099 8.45927ZM14.2379 5.17999C15.1699 4.43245 16.6745 4.08422 18.9729 4.08422H25.0698C27.3629 4.08422 28.86 4.43188 29.7816 5.17822C30.6023 5.84289 31.0367 6.89512 31.129 8.45918H12.8716C12.9655 6.89896 13.4059 5.84729 14.2379 5.17999ZM13.4775 39.8379C13.4775 39.8794 13.441 39.9158 13.3995 39.9158H6.01356C5.97208 39.9158 5.93564 39.8794 5.93564 39.8379V38.9314C5.93564 38.89 5.97208 38.8533 6.01356 38.8533H13.3994C13.4409 38.8533 13.4774 38.89 13.4774 38.9314L13.4775 39.8379ZM38.0298 39.8379C38.0298 39.8794 37.9933 39.9158 37.9519 39.9158H30.5659C30.5245 39.9158 30.4879 39.8794 30.4879 39.8379V38.9314C30.4879 38.89 30.5245 38.8533 30.5659 38.8533H37.9519C37.9933 38.8533 38.0298 38.89 38.0298 38.9314V39.8379ZM42.879 33.3804C42.879 35.7343 40.9639 37.6494 38.6101 37.6494H5.39028C3.03626 37.6494 1.12118 35.7343 1.12118 33.3804V13.8495C1.12118 11.4955 3.03626 9.58045 5.39028 9.58045H38.6099C40.9637 9.58045 42.8788 11.4955 42.8788 13.8495L42.879 33.3804Z" fill="#2ECC71"/>
<path d="M29.1084 20.2498H25.3649V16.5065C25.3649 15.4047 24.4687 14.5084 23.3671 14.5084H20.6334C19.5316 14.5084 18.6351 15.4047 18.6351 16.5065V20.2498H14.8918C13.79 20.2498 12.8937 21.1462 12.8937 22.248V24.9818C12.8937 26.0834 13.79 26.9797 14.8918 26.9797H18.6351V30.7231C18.6351 31.8249 19.5315 32.7213 20.6334 32.7213H23.3671C24.4687 32.7213 25.3649 31.8249 25.3649 30.7231V26.9797H29.1083C30.2101 26.9797 31.1066 26.0834 31.1066 24.9818V22.248C31.1067 21.1462 30.2102 20.2498 29.1084 20.2498ZM29.9855 24.9818C29.9855 25.4653 29.5921 25.8585 29.1084 25.8585H24.2438V30.7231C24.2438 31.2067 23.8505 31.6001 23.3671 31.6001H20.6334C20.1498 31.6001 19.7563 31.2067 19.7563 30.7231V25.8585H14.8918C14.4083 25.8585 14.0149 25.4653 14.0149 24.9818V22.248C14.0149 21.7644 14.4083 21.371 14.8918 21.371H19.7563V16.5065C19.7563 16.023 20.1498 15.6296 20.6334 15.6296H23.3671C23.8505 15.6296 24.2438 16.023 24.2438 16.5065V21.371H29.1083C29.592 21.371 29.9854 21.7644 29.9854 22.248V24.9818H29.9855Z" fill="#2ECC71"/>
</svg>
