<svg width="68" height="68" viewBox="0 0 68 68" fill="none" xmlns="http://www.w3.org/2000/svg">
<path d="M50.1788 36.5838L43.0127 21.5768C42.9641 21.4714 42.8836 21.3778 42.7973 21.3058C42.6599 21.187 42.4847 21.1166 42.2872 21.1166H31.6666C31.3133 19.6449 29.9778 18.5455 28.3847 18.5455C26.7915 18.5455 25.4555 19.6449 25.1027 21.1166H14.4523C14.1126 21.1166 13.8262 21.33 13.7174 21.6272C13.6312 21.6992 13.5554 21.7845 13.5068 21.89L6.3407 36.897C6.3407 36.897 6.1818 37.1613 6.1818 37.441C6.1818 42.2268 9.93368 46.12 14.5449 46.12C19.156 46.12 22.9079 42.2268 22.9079 37.441C22.9079 37.1937 22.8833 37.1212 22.6858 36.754L15.3247 22.6592H25.1022C25.3943 23.8764 26.3587 24.8354 27.5855 25.1316V54.0266H20.122C19.6886 54.0266 19.3379 54.3717 19.3379 54.798V58.3975C19.3379 58.8238 19.6886 59.1688 20.122 59.1688H36.7142C37.1476 59.1688 37.4983 58.8238 37.4983 58.3975V54.798C37.4983 54.3717 37.1476 54.0266 36.7142 54.0266H29.1541V25.1393C30.3949 24.8514 31.3729 23.8862 31.6671 22.6592H41.0223L33.8337 36.4408C33.6361 36.808 33.6116 36.8805 33.6116 37.1278C33.6116 41.9137 37.3634 45.8068 41.9746 45.8068C46.5858 45.8068 50.3377 41.9137 50.3377 37.1278C50.3377 36.8481 50.1788 36.5838 50.1788 36.5838ZM14.5449 44.5768C11.0465 44.5768 8.15653 41.7851 7.78908 38.2118H21.3006C20.9332 41.7856 18.0432 44.5768 14.5449 44.5768ZM20.8908 36.6697L8.09328 36.8322L14.2542 24.0019L20.8908 36.6697ZM35.9302 55.5688V57.6257H20.906V55.5688H35.9302ZM30.178 22.036C30.1006 22.958 29.3307 23.6872 28.3847 23.6872C27.3874 23.6872 26.5761 22.8798 26.5761 21.8874C26.5761 20.8949 27.3874 20.0876 28.3847 20.0876C29.3307 20.0876 30.1006 20.8168 30.178 21.7388C30.1686 21.7871 30.1628 21.8365 30.1628 21.8874C30.1628 21.9383 30.1686 21.9882 30.178 22.036ZM42.2657 23.6887L48.4267 36.519L35.6291 36.3565L42.2657 23.6887ZM41.9746 44.2637C38.4762 44.2637 35.5863 41.4725 35.2188 37.8987H48.7304C48.3629 41.472 45.473 44.2637 41.9746 44.2637Z" fill="#F18343"/>
</svg>
