<svg width="149" height="149" viewBox="0 0 149 149" fill="none" xmlns="http://www.w3.org/2000/svg">
<g clip-path="url(#clip0)">
<path d="M30.6433 73.3093C30.8252 73.4748 31.0328 73.594 31.2521 73.6677C31.8798 73.8787 32.6009 73.7154 33.0751 73.1941L62.7791 40.5355L65.347 45.7032C65.5587 46.1288 65.9228 46.4287 66.3403 46.569C66.7578 46.7093 67.2291 46.6905 67.6549 46.4789C68.5064 46.0558 68.8536 45.0225 68.4305 44.1713L65.2656 37.8022L71.7962 30.6219L101.237 89.8703C101.449 90.2959 101.813 90.5958 102.23 90.7361C102.648 90.8765 103.119 90.8576 103.545 90.646C104.396 90.2229 104.744 89.1896 104.32 88.3384L73.5026 26.3193C73.0841 25.4772 73.0186 24.5222 73.3183 23.6306C73.6179 22.739 74.2466 22.0175 75.089 21.5989L76.0484 21.122C77.7869 20.2583 79.9047 20.9695 80.7686 22.7084L83.553 28.3123C83.9761 29.1637 85.0091 29.5109 85.8608 29.0879C86.7122 28.6648 87.0595 27.6315 86.6363 26.7803L83.8516 21.1764C82.1432 17.7378 77.955 16.33 74.5161 18.0389L73.5568 18.5158C71.8909 19.3434 70.6471 20.7703 70.0545 22.5337C69.5274 24.1019 69.5729 25.7686 70.1715 27.2902L30.5278 70.8774C29.8882 71.5809 29.9398 72.6695 30.6433 73.3093Z" fill="#2ECC71"/>
<path d="M89.901 33.3503C89.4777 32.4988 88.4447 32.1517 87.5933 32.5747C86.7418 32.9978 86.3946 34.0311 86.8177 34.8823L118.67 98.982C119.088 99.8242 119.154 100.779 118.854 101.67C118.554 102.562 117.925 103.283 117.083 103.702L116.124 104.179C115.282 104.597 114.327 104.663 113.435 104.363C112.543 104.064 111.822 103.435 111.404 102.593L107.598 94.9342C107.174 94.0824 106.141 93.7357 105.29 94.1586C104.439 94.5817 104.091 95.615 104.515 96.4662L106.944 101.354L97.2768 102.223L71.8201 50.9935C71.3967 50.1417 70.3636 49.7947 69.5123 50.2179C68.6611 50.6411 68.3137 51.6742 68.7368 52.5254L93.5964 102.554L30.6552 108.209C30.6075 108.095 30.5623 107.98 30.5065 107.867L20.4407 87.6106C20.3848 87.4981 20.3243 87.3891 20.2617 87.2814L28.0273 78.7436C28.6668 78.0404 28.6153 76.9516 27.9118 76.3117C27.209 75.6723 26.12 75.7236 25.48 76.4269L17.696 84.9849C17.5385 84.9155 17.3774 84.8522 17.2123 84.7967C15.7955 84.3205 14.278 84.4246 12.9397 85.0896L10.2537 86.4243C7.49097 87.7972 6.36007 91.1621 7.73283 93.9251L17.7984 114.181L17.7987 114.181C18.4637 115.52 19.6105 116.519 21.0268 116.995C22.4437 117.471 23.9611 117.367 25.2994 116.702L27.9854 115.368C29.5333 114.598 30.568 113.204 30.9383 111.64L34.508 111.319L35.0174 115.202C35.2004 116.596 35.6075 117.935 36.2273 119.183C37.7493 122.245 40.3691 124.471 43.4621 125.511C45.0643 126.049 46.7941 126.269 48.5626 126.121L59.4084 125.215C66.1898 124.648 71.3615 118.661 70.9371 111.87L70.6995 108.067L108.618 104.66C109.496 106.096 110.83 107.116 112.339 107.623C114.03 108.192 115.936 108.116 117.656 107.262L118.615 106.785C120.281 105.957 121.525 104.53 122.118 102.767C122.71 101.004 122.581 99.115 121.753 97.4493L89.901 33.3503ZM26.4534 112.285L23.7674 113.619C23.2526 113.875 22.6688 113.915 22.1238 113.732C21.5788 113.549 21.1378 113.164 20.8817 112.649L20.882 112.65L10.8163 92.3932C10.2883 91.3302 10.7233 90.0359 11.7861 89.5078L14.4721 88.1731C14.9869 87.9173 15.5706 87.8771 16.1157 88.0603C16.6607 88.2435 17.1017 88.628 17.3575 89.1428L27.4231 109.399C27.9512 110.462 27.5162 111.756 26.4534 112.285ZM59.0766 112.611C59.1004 112.992 58.7989 113.341 58.419 113.373L47.5731 114.279C47.1892 114.311 46.8504 114.037 46.8003 113.656L46.3541 110.255L58.8594 109.131L59.0766 112.611ZM67.5011 112.085C67.8094 117.021 64.0508 121.372 59.122 121.784L48.2761 122.69C44.5084 123.006 40.989 121.027 39.3106 117.651C38.8606 116.745 38.5646 115.77 38.4312 114.754L37.9401 111.011L42.9219 110.563L43.3863 114.104C43.5997 115.73 44.7218 117.017 46.1843 117.509C46.7078 117.685 47.2749 117.759 47.8595 117.71L58.7054 116.804C60.9446 116.616 62.6526 114.639 62.5123 112.397L62.2892 108.823L67.2689 108.376L67.5011 112.085Z" fill="#2ECC71"/>
<path d="M108.547 58.0998C108.964 58.2401 109.435 58.2212 109.861 58.0096L112.263 56.816C113.115 56.3929 113.462 55.3597 113.039 54.5085C112.616 53.657 111.583 53.3098 110.731 53.7329L108.329 54.9265C107.478 55.3495 107.13 56.3828 107.554 57.234C107.765 57.6598 108.129 57.9595 108.547 58.0998Z" fill="#2ECC71"/>
<path d="M120.095 52.0792C120.513 52.2196 120.984 52.2007 121.41 51.9891L131.579 46.9356C132.431 46.5125 132.778 45.4793 132.355 44.6281C131.932 43.7765 130.899 43.4294 130.047 43.8525L119.878 48.9059C119.026 49.329 118.679 50.3622 119.102 51.2135C119.314 51.6393 119.678 51.9389 120.095 52.0792Z" fill="#2ECC71"/>
<path d="M105.122 38.3718C105.164 38.39 105.207 38.4064 105.251 38.421C106.094 38.7042 107.026 38.2961 107.381 37.4646L111.84 27.0208C112.213 26.1464 111.807 25.1349 110.932 24.7615C110.059 24.3887 109.047 24.7947 108.673 25.6687L104.215 36.1125C103.841 36.9871 104.247 37.9985 105.122 38.3718Z" fill="#2ECC71"/>
<path d="M135.476 74.1526C135.706 73.2305 135.147 72.2947 134.223 72.0652L123.206 69.3115C122.284 69.0809 121.349 69.6417 121.119 70.5643C120.9 71.4415 121.396 72.3297 122.239 72.6129C122.282 72.6274 122.326 72.6405 122.372 72.6517L133.388 75.4054C134.311 75.6359 135.245 75.0751 135.476 74.1526Z" fill="#2ECC71"/>
</g>
<defs>
<clipPath id="clip0">
<rect width="117" height="117" fill="white" transform="translate(37.2729) rotate(18.5766)"/>
</clipPath>
</defs>
</svg>
