<svg width="45" height="45" viewBox="0 0 45 45" fill="none" xmlns="http://www.w3.org/2000/svg">
<path d="M34.4234 11.6544C34.3808 11.6397 34.3361 11.628 34.2894 11.6235C29.4755 11.1419 25.61 10.0761 21.222 6.25612C20.976 6.04255 20.6036 6.06813 20.3896 6.31378C20.3775 6.32758 20.3738 6.34545 20.3633 6.36007C16.0106 10.1208 12.1634 11.1785 7.38029 11.6564C7.36893 11.6576 7.35877 11.6613 7.34781 11.6629C7.32913 11.6657 7.31086 11.6694 7.293 11.6738C7.2731 11.6791 7.25402 11.6848 7.23493 11.6917C7.21747 11.6982 7.20083 11.7051 7.18418 11.7132C7.16631 11.7218 7.14885 11.7311 7.13221 11.7417C7.11637 11.7514 7.10135 11.7615 7.08673 11.7725C7.0713 11.7839 7.05709 11.7961 7.04288 11.8086C7.02867 11.8216 7.01527 11.835 7.00228 11.8497C6.9905 11.8631 6.97913 11.8765 6.96817 11.8907C6.95599 11.9069 6.94462 11.924 6.93406 11.9414C6.92513 11.956 6.91741 11.9707 6.9097 11.9861C6.90036 12.0052 6.89224 12.0243 6.88534 12.0441C6.87965 12.0604 6.87437 12.0766 6.87031 12.0933C6.86504 12.114 6.86057 12.1347 6.85732 12.1562C6.85488 12.1737 6.85285 12.1911 6.85204 12.209C6.85123 12.2208 6.84839 12.2317 6.84839 12.2435V27.4113C6.84839 27.4637 6.85529 27.5153 6.8691 27.5656C9.50792 37.2963 20.1533 41.9206 20.6053 42.1122C20.6792 42.1435 20.7575 42.1593 20.8359 42.1593C20.9134 42.1593 20.9914 42.1439 21.0645 42.1135C21.5213 41.921 32.2893 37.2975 34.9277 27.5656C34.9363 27.5348 34.9419 27.5035 34.9452 27.4714L34.9967 26.9663C34.9988 26.9464 35 26.9261 35 26.9066V12.2431C35 11.9219 34.743 11.6617 34.4234 11.6544ZM33.7762 27.3033C31.4752 35.6863 22.4032 40.1994 20.8371 40.9226C19.2848 40.1986 10.3452 35.7046 8.02833 27.3322V12.7722C12.6957 12.2561 16.5457 11.1192 20.8542 7.48763C25.2024 11.1383 29.0861 12.2524 33.8201 12.7592V26.8762L33.7762 27.3033Z" fill="#03A9F4"/>
</svg>
